<svg width="318" height="40" viewBox="26 26 318 40" preserveAspectRatio="none" fill="none" xmlns="http://www.w3.org/2000/svg">
<path d="M26 46C26 34.9543 34.9543 26 46 26H324C335.046 26 344 34.9543 344 46C344 57.0457 335.046 66 324 66H46C34.9543 66 26 57.0457 26 46Z" fill="white" style="mix-blend-mode:multiply"/>
<g opacity="0.67">
<mask id="mask0_2056_1644" style="mask-type:luminance" maskUnits="userSpaceOnUse" x="-50" y="-50" width="470" height="192">
<rect width="470" height="192" transform="translate(-50 -50)" fill="white"/>
<rect x="26" y="26" width="318" height="40" rx="20" fill="black"/>
</mask>
<g mask="url(#mask0_2056_1644)">
<foreignObject x="-14" y="-12" width="398" height="120"><div xmlns="http://www.w3.org/1999/xhtml" style="backdrop-filter:blur(20px);clip-path:url(#bgblur_0_2056_1644_clip_path);height:100%;width:100%"></div></foreignObject><g filter="url(#filter0_f_2056_1644)" data-figma-bg-blur-radius="40">
<path d="M26 48C26 36.9543 34.9543 28 46 28H324C335.046 28 344 36.9543 344 48C344 59.0457 335.046 68 324 68H46C34.9543 68 26 59.0457 26 48Z" fill="black" fill-opacity="0.04" style="mix-blend-mode:hard-light"/>
</g>
</g>
</g>
<path d="M26 46C26 34.9543 34.9543 26 46 26H324C335.046 26 344 34.9543 344 46C344 57.0457 335.046 66 324 66H46C34.9543 66 26 57.0457 26 46Z" fill="#333333" style="mix-blend-mode:color-dodge"/>
<path d="M26 46C26 34.9543 34.9543 26 46 26H324C335.046 26 344 34.9543 344 46C344 57.0457 335.046 66 324 66H46C34.9543 66 26 57.0457 26 46Z" fill="white" fill-opacity="0.5"/>
<path d="M26 46C26 34.9543 34.9543 26 46 26H324C335.046 26 344 34.9543 344 46C344 57.0457 335.046 66 324 66H46C34.9543 66 26 57.0457 26 46Z" fill="#F7F7F7" style="mix-blend-mode:plus-darker"/>
<rect x="26" y="26" width="318" height="40" rx="20" fill="black" fill-opacity="0.01"/>


<defs>
<filter id="filter0_f_2056_1644" x="-14" y="-12" width="398" height="120" filterUnits="userSpaceOnUse" color-interpolation-filters="sRGB">
<feFlood flood-opacity="0" result="BackgroundImageFix"/>
<feBlend mode="normal" in="SourceGraphic" in2="BackgroundImageFix" result="shape"/>
<feGaussianBlur stdDeviation="10" result="effect1_foregroundBlur_2056_1644"/>
</filter>
<clipPath id="bgblur_0_2056_1644_clip_path" transform="translate(14 12)"><path d="M26 48C26 36.9543 34.9543 28 46 28H324C335.046 28 344 36.9543 344 48C344 59.0457 335.046 68 324 68H46C34.9543 68 26 59.0457 26 48Z"/>
</clipPath></defs>
</svg>
